<svg xmlns="http://www.w3.org/2000/svg" width="259" height="147" viewBox="0 0 259 147">
  <g fill="none" fill-rule="evenodd">
    <path fill="#7150c1" fill-rule="nonzero" d="M140.586,107.87 L29.6762,103.74 C28.6803,103.705 27.7193,103.364 26.9247,102.762 C26.13,102.161 25.5403,101.329 25.2362,100.38 L0.236224,22.6499 C-0.00428131,21.9085 -0.0622149,21.1201 0.0673623,20.3516 C0.19694,19.5831 0.510195,18.8572 0.980479,18.2357 C1.45076,17.6142 2.06417,17.1155 2.76855,16.782 C3.47293,16.4484 4.24743,16.2899 5.02622,16.3199 L164.786,22.1999 C165.434,22.2054 166.075,22.3408 166.67,22.5981 C167.265,22.8553 167.802,23.2292 168.25,23.6976 C168.698,24.1661 169.047,24.7195 169.278,25.3254 C169.508,25.9312 169.615,26.577 169.592,27.2247 C169.568,27.8725 169.415,28.509 169.142,29.0966 C168.868,29.6842 168.48,30.211 167.999,30.6459 C167.518,31.0808 166.955,31.4149 166.344,31.6286 C165.732,31.8423 165.083,31.9311 164.436,31.8899 L11.5662,26.2699 L33.4262,94.1699 L138.076,98.0299 L192.286,9.53986 C192.737,8.80563 193.374,8.20405 194.133,7.79648 C194.892,7.38891 195.745,7.18993 196.606,7.21986 L253.926,9.32986 C254.563,9.3535 255.189,9.50235 255.769,9.76792 C256.348,10.0335 256.869,10.4106 257.303,10.8777 C257.737,11.3448 258.074,11.8927 258.296,12.4901 C258.518,13.0876 258.62,13.7229 258.596,14.3599 C258.573,14.9968 258.424,15.6228 258.158,16.2022 C257.893,16.7816 257.516,17.303 257.048,17.7366 C256.581,18.1703 256.033,18.5077 255.436,18.7296 C254.838,18.9515 254.203,19.0535 253.566,19.0299 L199.076,17.0299 L144.866,105.52 C144.426,106.256 143.797,106.862 143.045,107.276 C142.293,107.689 141.444,107.894 140.586,107.87 Z" opacity=".2"/>
    <path fill="#7150c1" fill-rule="nonzero" d="M239.816 47.02L197.816 45.47C197.168 45.4644 196.528 45.329 195.933 45.0718 195.338 44.8145 194.8 44.4406 194.353 43.9722 193.905 43.5037 193.555 42.9503 193.325 42.3445 193.094 41.7387 192.987 41.0928 193.011 40.4451 193.034 39.7973 193.187 39.1609 193.461 38.5733 193.734 37.9857 194.123 37.4588 194.604 37.0239 195.084 36.5891 195.647 36.2549 196.259 36.0412 196.871 35.8276 197.519 35.7387 198.166 35.78L240.166 37.32C241.453 37.3677 242.667 37.9245 243.543 38.8678 244.419 39.8111 244.884 41.0637 244.836 42.35 244.788 43.6363 244.232 44.8509 243.288 45.7267 242.345 46.6025 241.093 47.0677 239.806 47.02L239.816 47.02zM224.156 70.2899L182.156 68.7499C181.519 68.7262 180.893 68.5774 180.314 68.3118 179.735 68.0462 179.213 67.6691 178.779 67.202 178.346 66.735 178.008 66.187 177.787 65.5896 177.565 64.9921 177.463 64.3568 177.486 63.7199 177.51 63.083 177.659 62.4569 177.924 61.8775 178.19 61.2982 178.567 60.7768 179.034 60.3431 179.501 59.9095 180.049 59.5721 180.647 59.3502 181.244 59.1283 181.879 59.0262 182.516 59.0498L224.516 60.5999C225.164 60.607 225.803 60.7437 226.397 61.002 226.991 61.2602 227.527 61.6348 227.974 62.1036 228.421 62.5724 228.769 63.1259 228.998 63.7315 229.228 64.3371 229.334 64.9825 229.31 65.6296 229.286 66.2768 229.132 66.9125 228.858 67.4994 228.585 68.0863 228.196 68.6125 227.716 69.0468 227.236 69.4812 226.673 69.8149 226.062 70.0284 225.45 70.2419 224.803 70.3308 224.156 70.2899zM50.6962 144.15C47.2233 144.023 43.866 142.869 41.0489 140.834 38.2319 138.798 36.0817 135.974 34.8702 132.716 33.6588 129.459 33.4406 125.916 34.2431 122.534 35.0456 119.153 36.8329 116.085 39.3789 113.72 41.9248 111.354 45.1151 109.797 48.5463 109.245 51.9774 108.693 55.4952 109.17 58.6548 110.618 61.8145 112.065 64.4739 114.416 66.2969 117.375 68.1199 120.334 69.0245 123.767 68.8962 127.24 68.7191 131.894 66.7037 136.287 63.2919 139.457 59.8801 142.627 55.3504 144.315 50.6962 144.15zM51.6262 118.74C50.0727 118.684 48.5374 119.089 47.2143 119.905 45.8913 120.722 44.8401 121.912 44.1935 123.326 43.5469 124.739 43.3341 126.313 43.5819 127.848 43.8297 129.382 44.527 130.809 45.5857 131.947 46.6443 133.086 48.0168 133.885 49.5294 134.243 51.0421 134.601 52.6271 134.503 54.0839 133.961 55.5408 133.418 56.8041 132.456 57.714 131.196 58.624 129.935 59.1398 128.433 59.1962 126.88 59.2337 125.848 59.0676 124.82 58.7074 123.852 58.3472 122.885 57.8001 121.998 57.0971 121.242 56.3942 120.486 55.5492 119.876 54.6105 119.447 53.6718 119.018 52.6578 118.777 51.6262 118.74zM118.076 146.63C114.606 146.501 111.252 145.346 108.438 143.312 105.624 141.277 103.477 138.454 102.267 135.199 101.058 131.944 100.841 128.403 101.643 125.025 102.445 121.646 104.231 118.581 106.775 116.218 109.319 113.854 112.507 112.298 115.935 111.746 119.363 111.193 122.878 111.67 126.036 113.115 129.193 114.56 131.851 116.909 133.674 119.865 135.497 122.82 136.402 126.25 136.276 129.72 136.102 134.375 134.087 138.77 130.675 141.94 127.262 145.111 122.731 146.798 118.076 146.63zM119.016 121.22C117.462 121.162 115.926 121.566 114.602 122.381 113.277 123.196 112.225 124.385 111.577 125.798 110.928 127.212 110.714 128.786 110.961 130.321 111.207 131.856 111.904 133.284 112.962 134.423 114.02 135.563 115.393 136.363 116.906 136.722 118.418 137.081 120.004 136.983 121.461 136.441 122.919 135.899 124.183 134.937 125.093 133.677 126.004 132.416 126.52 130.914 126.576 129.36 126.647 127.29 125.9 125.275 124.496 123.752 123.092 122.228 121.145 121.319 119.076 121.22L119.016 121.22z" opacity=".2"/>
    <path fill="#7150c1" fill-rule="nonzero" d="M144.166,102.6 L33.1662,102.6 C32.1698,102.598 31.1979,102.291 30.3822,101.718 C29.5666,101.146 28.9466,100.337 28.6062,99.4 L0.766236,22.64 C0.498833,21.9076 0.412309,21.1215 0.514024,20.3485 C0.615739,19.5756 0.902677,18.8386 1.35043,18.2003 C1.79819,17.5621 2.39351,17.0414 3.08573,16.6827 C3.77795,16.324 4.54659,16.1378 5.32623,16.14 L165.196,16.14 C166.483,16.14 167.716,16.651 168.626,17.5605 C169.535,18.4701 170.046,19.7037 170.046,20.99 C170.046,22.2763 169.535,23.5099 168.626,24.4195 C167.716,25.329 166.483,25.84 165.196,25.84 L12.2462,25.84 L36.5862,92.87 L141.336,92.87 L192.256,2.47 C192.68,1.72132 193.295,1.09834 194.038,0.664474 C194.781,0.230606 195.626,0.00133596 196.486,0 L253.846,0 C255.133,0 256.366,0.510981 257.276,1.42053 C258.185,2.33008 258.696,3.56371 258.696,4.85001 C258.696,6.13631 258.185,7.36992 257.276,8.27947 C256.366,9.18902 255.133,9.7 253.846,9.7 L199.316,9.7 L148.396,100.12 C147.975,100.872 147.361,101.498 146.618,101.934 C145.874,102.37 145.028,102.6 144.166,102.6 Z"/>
    <path fill="#7150c1" fill-rule="nonzero" d="M241.076 38.18L199.076 38.18C197.79 38.18 196.556 37.669 195.647 36.7594 194.737 35.8499 194.226 34.6163 194.226 33.33 194.226 32.0437 194.737 30.8101 195.647 29.9005 196.556 28.991 197.79 28.48 199.076 28.48L241.076 28.48C242.363 28.48 243.596 28.991 244.506 29.9005 245.415 30.8101 245.926 32.0437 245.926 33.33 245.926 34.6163 245.415 35.8499 244.506 36.7594 243.596 37.669 242.363 38.18 241.076 38.18zM226.306 62.0199L184.256 62.0199C183.007 61.9632 181.827 61.4269 180.963 60.5226 180.099 59.6184 179.617 58.4157 179.617 57.1649 179.617 55.9141 180.099 54.7115 180.963 53.8072 181.827 52.9029 183.007 52.3667 184.256 52.3099L226.306 52.3099C227.556 52.3667 228.735 52.9029 229.599 53.8072 230.464 54.7115 230.946 55.9141 230.946 57.1649 230.946 58.4157 230.464 59.6184 229.599 60.5226 228.735 61.4269 227.556 61.9632 226.306 62.0199zM55.6762 142.200003C52.2008 142.202 48.8028 141.173 45.9121 139.244 43.0214 137.314 40.7679 134.571 39.4365 131.361 38.1051 128.15 37.7558 124.617 38.4326 121.208 39.1094 117.799 40.782 114.668 43.2388 112.21 45.6956 109.751 48.8263 108.077 52.2348 107.398 55.6433 106.72 59.1766 107.067 62.3876 108.396 65.5987 109.726 68.3434 111.978 70.2744 114.868 72.2055 117.757 73.2362 121.154 73.2362 124.63 73.2309 129.286 71.3795 133.751 68.0878 137.044 64.7961 140.338 60.3327 142.192 55.6762 142.200003zM55.6762 116.77C54.1216 116.77 52.602 117.231 51.3094 118.095 50.0168 118.958 49.0094 120.186 48.4145 121.622 47.8196 123.058 47.6639 124.639 47.9672 126.163 48.2705 127.688 49.0191 129.089 50.1183 130.188 51.2176 131.287 52.6181 132.036 54.1428 132.339 55.6675 132.642 57.2479 132.487 58.6841 131.892 60.1203 131.297 61.3479 130.289 62.2115 128.997 63.0752 127.704 63.5362 126.184 63.5362 124.63 63.5336 122.546 62.7046 120.548 61.2311 119.075 59.7577 117.602 57.76 116.773 55.6762 116.77zM123.146 142.200003C119.671 142.202 116.273 141.173 113.382 139.244 110.491 137.314 108.238 134.571 106.906 131.361 105.575 128.15 105.226 124.617 105.903 121.208 106.579 117.799 108.252 114.668 110.709 112.21 113.166 109.751 116.296 108.077 119.705 107.398 123.113 106.72 126.647 107.067 129.858 108.396 133.069 109.726 135.813 111.978 137.744 114.868 139.675 117.757 140.706 121.154 140.706 124.63 140.701 129.286 138.849 133.751 135.558 137.044 132.266 140.338 127.803 142.192 123.146 142.200003zM123.146 116.77C121.592 116.77 120.072 117.231 118.779 118.095 117.487 118.958 116.479 120.186 115.884 121.622 115.29 123.058 115.134 124.639 115.437 126.163 115.74 127.688 116.489 129.089 117.588 130.188 118.688 131.287 120.088 132.036 121.613 132.339 123.137 132.642 124.718 132.487 126.154 131.892 127.59 131.297 128.818 130.289 129.682 128.997 130.545 127.704 131.006 126.184 131.006 124.63 131.004 122.546 130.175 120.548 128.701 119.075 127.228 117.602 125.23 116.773 123.146 116.77z"/>
    <path stroke="#383336" stroke-linecap="round" stroke-linejoin="round" stroke-width="2.08" d="M83.61,73.9775 C83.5719,72.8959 83.752,71.8176 84.1396,70.807 C84.5273,69.7965 85.1145,68.8744 85.8662,68.0957 C86.6179,67.317 87.5188,66.6976 88.5151,66.2747 C89.5114,65.8517 90.5826,65.6337 91.665,65.6337 C92.7473,65.6337 93.8186,65.8517 94.8149,66.2747 C95.8111,66.6976 96.712,67.317 97.4637,68.0957 C98.2155,68.8744 98.8027,69.7965 99.1903,70.807 C99.578,71.8176 99.7581,72.8959 99.72,73.9775"/>
    <path fill="#383336" fill-rule="nonzero" d="M72.850104,60.6337 C72.852,62.9264 72.174,65.1682 70.9016,67.0755 C69.6293,68.9828 67.8199,70.4699 65.7023,71.3486 C63.5847,72.2274 61.254,72.4583 59.0051,72.0122 C56.7562,71.5661 54.6901,70.4631 53.0682,68.8426 C51.4463,67.2221 50.3415,65.157 49.8935,62.9085 C49.4455,60.66 49.6744,58.3291 50.5513,56.2107 C51.4283,54.0924 52.9138,52.2816 54.8199,51.0077 C56.7261,49.7337 58.9673,49.0536958 61.26,49.0536958 C62.7816,49.0524 64.2885,49.351 65.6946,49.9323 C67.1007,50.5137 68.3784,51.3664 69.4548,52.4419 C70.5312,53.5173 71.385,54.7943 71.9676,56.1999 C72.5502,57.6055 72.850104,59.1122 72.850104,60.6337 Z"/>
    <path fill="#FFF" fill-rule="nonzero" d="M59.85 55.7037C59.85 56.4355 59.6329 57.1508 59.2264 57.7593 58.8198 58.3677 58.242 58.842 57.5659 59.122 56.8898 59.4021 56.1458 59.4753 55.4281 59.3326 54.7104 59.1898 54.0511 58.8374 53.5337 58.32 53.0162 57.8025 52.6638 57.1432 52.5211 56.4255 52.3783 55.7078 52.4515 54.9638 52.7316 54.2878 53.0116 53.6117 53.4859 53.0338 54.0943 52.6272 54.7028 52.2207 55.4181 52.0037 56.1499 52.0037 57.1312 52.0037 58.0724 52.3935 58.7662 53.0874 59.4601 53.7813 59.85 54.7224 59.85 55.7037zM58.19 62.7238C58.9577 62.7238 59.58 62.1015 59.58 61.3339 59.58 60.5662 58.9577 59.9438 58.19 59.9438 57.4224 59.9438 56.8 60.5662 56.8 61.3339 56.8 62.1015 57.4224 62.7238 58.19 62.7238zM62.1401 57.6337C62.142 57.8082 62.0921 57.9793 61.9966 58.1253 61.9012 58.2714 61.7644 58.3857 61.6038 58.4538 61.4432 58.522 61.2659 58.5408 61.0946 58.508 60.9232 58.4752 60.7655 58.3922 60.6414 58.2695 60.5174 58.1469 60.4326 57.9901 60.3978 57.8191 60.363 57.6481 60.3798 57.4707 60.4461 57.3093 60.5124 57.1479 60.6252 57.0099 60.7701 56.9127 60.9151 56.8156 61.0856 56.7637 61.2601 56.7637 61.3751 56.7624 61.4894 56.7839 61.5961 56.8271 61.7028 56.8702 61.7999 56.9341 61.8817 57.015 61.9636 57.0959 62.0285 57.1922 62.0729 57.2985 62.1172 57.4047 62.1401 57.5186 62.1401 57.6337z"/>
    <path fill="#7150c1" fill-rule="nonzero" d="M65.27,72.2238 C65.27,73.6438 60.74,74.8038 55.14,74.8038 C49.54,74.8038 45,73.6438 45,72.2238 C45,70.8038 49.54,69.6338 55.14,69.6338 C60.74,69.6338 65.27,70.7938 65.27,72.2238 Z"/>
    <path fill="#383336" fill-rule="nonzero" d="M134.060003,60.6337 C134.060003,62.924 133.381,65.1629 132.108,67.0672 C130.836,68.9715 129.027,70.4558 126.911,71.3322 C124.796,72.2087 122.467,72.438 120.221,71.9912 C117.975,71.5444 115.911,70.4415 114.292,68.822 C112.672,67.2025 111.569,65.1392 111.123,62.8929 C110.676,60.6466 110.905,58.3182 111.782,56.2022 C112.658,54.0862 114.142,52.2777 116.047,51.0053 C117.951,49.7329 120.19,49.0536958 122.48,49.0536958 C124.001,49.0524 125.508,49.351 126.913,49.9325 C128.319,50.514 129.596,51.3669 130.671,52.4425 C131.747,53.518 132.6,54.7951 133.181,56.2007 C133.763,57.6062 134.061,59.1126 134.060003,60.6337 Z"/>
    <path fill="#FFF" fill-rule="nonzero" d="M121.07 55.7037C121.07 56.4355 120.853 57.1508 120.446 57.7593 120.04 58.3677 119.462 58.842 118.786 59.122 118.11 59.4021 117.366 59.4753 116.648 59.3326 115.93 59.1898 115.271 58.8374 114.754 58.32 114.236 57.8025 113.884 57.1432 113.741 56.4255 113.598 55.7078 113.672 54.9638 113.952 54.2878 114.232 53.6117 114.706 53.0338 115.314 52.6272 115.923 52.2207 116.638 52.0037 117.37 52.0037 118.351 52.0037 119.292 52.3935 119.986 53.0874 120.68 53.7813 121.07 54.7224 121.07 55.7037zM120.8 61.3339C120.8 61.6088 120.719 61.8775 120.566 62.1061 120.413 62.3347 120.196 62.5128 119.942 62.618 119.688 62.7232 119.408 62.7508 119.139 62.6971 118.869 62.6435 118.622 62.5111 118.427 62.3167 118.233 62.1223 118.1 61.8746 118.047 61.605 117.993 61.3354 118.021 61.0559 118.126 60.8019 118.231 60.5479 118.409 60.3308 118.638 60.1781 118.866 60.0254 119.135 59.9438 119.41 59.9438 119.779 59.9438 120.132 60.0903 120.393 60.351 120.654 60.6117 120.8 60.9652 120.8 61.3339zM123.35 57.6337C123.35 57.8057 123.299 57.9739 123.203 58.117 123.108 58.2601 122.972 58.3716 122.813 58.4374 122.654 58.5033 122.479 58.5205 122.31 58.4869 122.141 58.4534 121.986 58.3705 121.865 58.2488 121.743 58.1272 121.66 57.9722 121.627 57.8034 121.593 57.6346 121.61 57.4597 121.676 57.3007 121.742 57.1417 121.854 57.0059 121.997 56.9103 122.14 56.8147 122.308 56.7637 122.48 56.7637 122.711 56.7637 122.932 56.8553 123.095 57.0185 123.258 57.1817 123.35 57.4029 123.35 57.6337z"/>
    <path fill="#7150c1" fill-rule="nonzero" d="M138.29,72.2238 C138.29,73.6438 133.75,74.8038 128.15,74.8038 C122.55,74.8038 118.02,73.6338 118.02,72.2238 C118.02,70.8138 122.56,69.6338 128.15,69.6338 C133.74,69.6338 138.29,70.7938 138.29,72.2238 Z"/>
    <path stroke="#383336" stroke-linecap="round" stroke-linejoin="round" stroke-width="2.08" d="M118.94 40.7837C118.94 40.7837 128.2 37.3237 134.94 44.9437M64.36 40.7837C64.36 40.7837 55.1 37.3237 48.36 44.9437"/>
  </g>
</svg>
